<svg xmlns="http://www.w3.org/2000/svg"  viewBox="0 0 100 100" width="400px" height="400px"><path d="M94.062,37c0-4.856-2.669-9.094-6.613-11.345l0.001-0.007l-0.143-0.079	C87.256,25.54,58.026,9.416,58.026,9.416l-0.002,0.005C56.22,8.479,54.173,7.938,52,7.938c-7.081,0-12.864,5.664-13.058,12.699	l-9.417,5.06c-1.968-1.139-4.216-1.758-6.525-1.758c-7.203,0-13.063,5.86-13.063,13.063c0,0,0,31.288,0,32	c0,7.203,5.859,13.063,13.063,13.063c2.645,0,5.212-0.821,7.361-2.291l8.608,4.156c0.478,6.772,6.14,12.135,13.03,12.135	c6.904,0,12.575-5.384,13.032-12.175l8.544-4.157c2.16,1.496,4.749,2.332,7.424,2.332c7.203,0,13.062-5.86,13.062-13.063	C94.062,68.288,94.062,37.696,94.062,37z" opacity=".35"/><path fill="#f2f2f2" d="M92.062,35c0-4.856-2.669-9.094-6.613-11.345l0.001-0.007l-0.143-0.079	C85.256,23.54,56.026,7.416,56.026,7.416l-0.002,0.005C54.22,6.479,52.173,5.938,50,5.938c-7.081,0-12.864,5.664-13.058,12.699	l-9.417,5.06c-1.968-1.139-4.216-1.758-6.525-1.758c-7.203,0-13.063,5.86-13.063,13.063c0,0,0,31.288,0,32	c0,7.203,5.859,13.063,13.063,13.063c2.645,0,5.212-0.821,7.361-2.291l8.608,4.156c0.478,6.772,6.14,12.135,13.03,12.135	c6.904,0,12.575-5.384,13.032-12.175l8.544-4.157c2.16,1.496,4.749,2.332,7.424,2.332c7.203,0,13.062-5.86,13.062-13.063	C92.062,66.288,92.062,35.696,92.062,35z"/><line x1="50" x2="50" y1="56.039" y2="75.578" fill="none" stroke="#40396e" stroke-miterlimit="10" stroke-width="3"/><line x1="20.741" x2="50" y1="34.719" y2="50" fill="none" stroke="#40396e" stroke-miterlimit="10" stroke-width="3"/><line x1="21" x2="50" y1="67" y2="81" fill="none" stroke="#40396e" stroke-miterlimit="10" stroke-width="3"/><line x1="78.776" x2="50" y1="67" y2="81" fill="none" stroke="#40396e" stroke-miterlimit="10" stroke-width="3"/><line x1="79" x2="50" y1="35" y2="50" fill="none" stroke="#40396e" stroke-miterlimit="10" stroke-width="3"/><line x1="50" x2="20.741" y1="19" y2="34.719" fill="none" stroke="#40396e" stroke-miterlimit="10" stroke-width="3"/><circle cx="50" cy="50" r="6.563" fill="#70bfff" stroke="#40396e" stroke-miterlimit="10" stroke-width="3"/><circle cx="50" cy="81" r="6.563" fill="#70bfff" stroke="#40396e" stroke-miterlimit="10" stroke-width="3"/><circle cx="50" cy="19" r="6.563" fill="#70bfff" stroke="#40396e" stroke-miterlimit="10" stroke-width="3"/><circle cx="21" cy="35" r="6.563" fill="#70bfff" stroke="#40396e" stroke-miterlimit="10" stroke-width="3"/><circle cx="21" cy="67" r="6.563" fill="#70bfff" stroke="#40396e" stroke-miterlimit="10" stroke-width="3"/><circle cx="79" cy="35" r="6.563" fill="#70bfff" stroke="#40396e" stroke-miterlimit="10" stroke-width="3"/><circle cx="79" cy="67" r="6.563" fill="#70bfff" stroke="#40396e" stroke-miterlimit="10" stroke-width="3"/></svg>